<?xml version="1.0" encoding="utf-8"?>
<!-- Generator: Adobe Illustrator 16.0.0, SVG Export Plug-In . SVG Version: 6.00 Build 0)  -->
<!DOCTYPE svg PUBLIC "-//W3C//DTD SVG 1.1//EN" "http://www.w3.org/Graphics/SVG/1.1/DTD/svg11.dtd">
<svg version="1.1" id="Layer_1" xmlns="http://www.w3.org/2000/svg" xmlns:xlink="http://www.w3.org/1999/xlink" x="0px" y="0px"
	 width="20.07px" height="22.938px" fill="#999999" viewBox="225.5 213.43 20.07 22.938" enable-background="new 225.5 213.43 20.07 22.938"
	 xml:space="preserve">
<path d="M245.57,234.217c0,0.597-0.209,1.105-0.627,1.523c-0.418,0.418-0.926,0.627-1.523,0.627h-15.77
	c-0.598,0-1.105-0.209-1.523-0.627c-0.418-0.418-0.627-0.926-0.627-1.523v-15.77c0-0.597,0.209-1.105,0.627-1.523
	c0.418-0.418,0.926-0.627,1.523-0.627h2.15v-2.33c0-0.149,0.053-0.276,0.157-0.381s0.231-0.157,0.38-0.157h1.793
	c0.148,0,0.275,0.052,0.38,0.157s0.157,0.231,0.157,0.381v2.33h5.734v-2.33c0-0.149,0.053-0.276,0.157-0.381s0.231-0.157,0.38-0.157
	h1.793c0.148,0,0.275,0.052,0.38,0.157s0.157,0.231,0.157,0.381v2.33h2.15c0.598,0,1.105,0.209,1.523,0.627
	c0.418,0.418,0.627,0.926,0.627,1.523V234.217z M243.42,220.598h-15.77v13.351c0,0.06,0.03,0.119,0.09,0.179
	c0.06,0.06,0.119,0.09,0.179,0.09h15.232c0.06,0,0.119-0.03,0.179-0.09c0.06-0.06,0.09-0.119,0.09-0.179V220.598z M230.338,226.332
	c-0.148,0-0.275-0.052-0.38-0.157s-0.157-0.231-0.157-0.381v-1.792c0-0.149,0.053-0.276,0.157-0.381s0.231-0.157,0.38-0.157h1.793
	c0.148,0,0.275,0.052,0.38,0.157s0.157,0.231,0.157,0.381v1.792c0,0.149-0.053,0.276-0.157,0.381s-0.231,0.157-0.38,0.157H230.338z
	 M232.668,228.303c0-0.149-0.053-0.276-0.157-0.381s-0.231-0.157-0.38-0.157h-1.793c-0.148,0-0.275,0.052-0.38,0.157
	s-0.157,0.231-0.157,0.381v1.792c0,0.149,0.053,0.276,0.157,0.381s0.231,0.157,0.38,0.157h1.793c0.148,0,0.275-0.052,0.38-0.157
	s0.157-0.231,0.157-0.381V228.303z M236.969,224.002c0-0.149-0.053-0.276-0.157-0.381s-0.231-0.157-0.38-0.157h-1.793
	c-0.148,0-0.275,0.052-0.38,0.157s-0.157,0.231-0.157,0.381v1.792c0,0.149,0.053,0.276,0.157,0.381s0.231,0.157,0.38,0.157h1.793
	c0.148,0,0.275-0.052,0.38-0.157s0.157-0.231,0.157-0.381V224.002z M236.969,228.303c0-0.149-0.053-0.276-0.157-0.381
	s-0.231-0.157-0.38-0.157h-1.793c-0.148,0-0.275,0.052-0.38,0.157s-0.157,0.231-0.157,0.381v1.792c0,0.149,0.053,0.276,0.157,0.381
	s0.231,0.157,0.38,0.157h1.793c0.148,0,0.275-0.052,0.38-0.157s0.157-0.231,0.157-0.381V228.303z M241.27,224.002
	c0-0.149-0.053-0.276-0.157-0.381s-0.231-0.157-0.38-0.157h-1.793c-0.148,0-0.275,0.052-0.38,0.157s-0.157,0.231-0.157,0.381v1.792
	c0,0.149,0.053,0.276,0.157,0.381s0.231,0.157,0.38,0.157h1.793c0.148,0,0.275-0.052,0.38-0.157s0.157-0.231,0.157-0.381V224.002z
	 M241.27,228.303c0-0.149-0.053-0.276-0.157-0.381s-0.231-0.157-0.38-0.157h-1.793c-0.148,0-0.275,0.052-0.38,0.157
	s-0.157,0.231-0.157,0.381v1.792c0,0.149,0.053,0.276,0.157,0.381s0.231,0.157,0.38,0.157h1.793c0.148,0,0.275-0.052,0.38-0.157
	s0.157-0.231,0.157-0.381V228.303z"/>
</svg>
