<?xml version="1.0" encoding="utf-8"?>
<!-- Generator: Adobe Illustrator 16.0.0, SVG Export Plug-In . SVG Version: 6.00 Build 0)  -->
<!DOCTYPE svg PUBLIC "-//W3C//DTD SVG 1.1//EN" "http://www.w3.org/Graphics/SVG/1.1/DTD/svg11.dtd">
<svg version="1.1" id="Layer_1" xmlns="http://www.w3.org/2000/svg" xmlns:xlink="http://www.w3.org/1999/xlink" x="0px" y="0px"
	 width="12.777px" height="7.451px" viewBox="258.568 210.446 12.777 7.451"  fill="#ffffff" enable-background="new 258.568 210.446 12.777 7.451"
	 xml:space="preserve">
<path d="M271.217,211.803l-5.965,5.966c-0.077,0.077-0.192,0.128-0.295,0.128s-0.218-0.051-0.295-0.128l-5.965-5.966
	c-0.077-0.077-0.129-0.192-0.129-0.294s0.052-0.218,0.129-0.294l0.64-0.64c0.077-0.077,0.18-0.128,0.294-0.128
	c0.103,0,0.218,0.051,0.295,0.128l5.031,5.031l5.031-5.031c0.077-0.077,0.192-0.128,0.295-0.128c0.102,0,0.217,0.051,0.294,0.128
	l0.64,0.64c0.077,0.077,0.129,0.192,0.129,0.294S271.294,211.726,271.217,211.803z"/>
</svg>
