<?xml version="1.0" encoding="utf-8"?>
<!-- Generator: Adobe Illustrator 16.0.0, SVG Export Plug-In . SVG Version: 6.00 Build 0)  -->
<!DOCTYPE svg PUBLIC "-//W3C//DTD SVG 1.1//EN" "http://www.w3.org/Graphics/SVG/1.1/DTD/svg11.dtd">
<svg version="1.1" id="Layer_1" xmlns="http://www.w3.org/2000/svg" xmlns:xlink="http://www.w3.org/1999/xlink" x="0px" y="0px"
	 width="33.532px" height="22.355px" fill="#ffffff" viewBox="29.541 36.183 33.532 22.355" enable-background="new 29.541 36.183 33.532 22.355"
	 xml:space="preserve">
<path d="M60.28,36.183H32.336c-1.542,0-2.795,1.253-2.795,2.794v16.767c0,1.541,1.253,2.795,2.795,2.795H60.28
	c1.541,0,2.793-1.254,2.793-2.795V38.977C63.073,37.436,61.821,36.183,60.28,36.183z M61.676,55.743
	c0,0.771-0.625,1.396-1.396,1.396H32.336c-0.771,0-1.398-0.625-1.398-1.396V38.977c0-0.77,0.627-1.397,1.398-1.397H60.28
	c0.771,0,1.396,0.627,1.396,1.397V55.743z M58.563,43.057l-12.255,7.929l-12.255-7.929c-0.324-0.21-0.418-0.643-0.207-0.966
	c0.209-0.325,0.642-0.417,0.966-0.208l11.497,7.439l11.496-7.439c0.325-0.209,0.757-0.117,0.967,0.208
	C58.981,42.415,58.887,42.847,58.563,43.057z M40.602,49.068c0.214,0.32,0.128,0.755-0.194,0.969l-6.288,4.191
	c-0.119,0.08-0.253,0.117-0.387,0.117c-0.226,0-0.448-0.108-0.582-0.311c-0.214-0.32-0.128-0.755,0.193-0.97l6.288-4.191
	C39.954,48.66,40.387,48.746,40.602,49.068z M59.27,53.065c0.322,0.215,0.408,0.649,0.195,0.97
	c-0.135,0.202-0.357,0.311-0.583,0.311c-0.133,0-0.269-0.037-0.388-0.117l-6.287-4.191c-0.321-0.214-0.407-0.648-0.194-0.969
	c0.215-0.322,0.647-0.408,0.97-0.194L59.27,53.065z"/>
</svg>
