<?xml version="1.0" encoding="utf-8"?>
<!-- Generator: Adobe Illustrator 16.0.0, SVG Export Plug-In . SVG Version: 6.00 Build 0)  -->
<!DOCTYPE svg PUBLIC "-//W3C//DTD SVG 1.1//EN" "http://www.w3.org/Graphics/SVG/1.1/DTD/svg11.dtd">
<svg version="1.1" id="Layer_1" xmlns="http://www.w3.org/2000/svg" xmlns:xlink="http://www.w3.org/1999/xlink" x="0px" y="0px"
	 width="18px" fill="#ffffff" height="18px" viewBox="32.004 33.224 28.605 28.272" enable-background="new 32.004 33.224 28.605 28.272"
	 xml:space="preserve">
<path d="M59.774,34.062c-0.761-0.76-1.869-1.028-2.894-0.699c-0.02,0.006-0.042,0.014-0.063,0.022l-4.279,1.701
	c-0.247,0.098-0.443,0.29-0.549,0.532l-1.088,2.502l-2.502,1.087c-0.233,0.102-0.418,0.288-0.521,0.52l-1.087,2.502l-2.502,1.088
	c-0.233,0.102-0.418,0.288-0.52,0.52l-0.79,1.816c-2.963-1.092-6.301-0.387-8.587,1.898c-3.185,3.186-3.185,8.368,0,11.554
	c3.186,3.187,8.369,3.186,11.554,0c2.381-2.381,3.046-5.892,1.759-8.939l12.068-12.068C60.888,36.985,60.888,35.175,59.774,34.062z
	 M58.355,36.68L45.787,49.25c-0.312,0.312-0.383,0.791-0.176,1.181c1.285,2.409,0.85,5.326-1.082,7.258
	c-2.404,2.403-6.314,2.403-8.718,0c-2.403-2.403-2.403-6.314,0-8.718c1.918-1.917,4.819-2.361,7.22-1.103
	c0.247,0.129,0.536,0.15,0.799,0.058c0.263-0.093,0.475-0.291,0.586-0.547L45.452,45l2.501-1.088
	c0.232-0.101,0.418-0.286,0.52-0.519l1.089-2.503l2.502-1.087c0.232-0.102,0.418-0.287,0.52-0.52l1.08-2.484l3.859-1.534
	c0.297-0.085,0.614-0.004,0.834,0.216C58.688,35.81,58.688,36.35,58.355,36.68z M37.184,52.621c-1.019,1.018-1.019,2.676,0,3.694
	c1.019,1.019,2.676,1.019,3.695,0s1.019-2.677,0-3.694C39.861,51.602,38.203,51.602,37.184,52.621z M39.461,54.897
	c-0.237,0.237-0.623,0.237-0.859,0s-0.236-0.622,0-0.858s0.622-0.237,0.859,0C39.698,54.275,39.698,54.661,39.461,54.897z"/>
</svg>
