<?xml version="1.0" encoding="utf-8"?>
<!-- Generator: Adobe Illustrator 16.0.0, SVG Export Plug-In . SVG Version: 6.00 Build 0)  -->
<!DOCTYPE svg PUBLIC "-//W3C//DTD SVG 1.1//EN" "http://www.w3.org/Graphics/SVG/1.1/DTD/svg11.dtd">
<svg version="1.1" id="Layer_1" xmlns="http://www.w3.org/2000/svg" xmlns:xlink="http://www.w3.org/1999/xlink" x="0px" y="0px"
	 width="26.889px" height="40.334px" fill="#ffffff" viewBox="286.555 279.833 26.889 40.334"
	 enable-background="new 286.555 279.833 26.889 40.334" xml:space="preserve">
<path d="M300,279.833c-7.414,0-13.445,6.028-13.445,13.438v13.458c0,7.409,6.031,13.438,13.445,13.438
	c7.413,0,13.444-6.028,13.444-13.438v-13.458C313.444,285.861,307.413,279.833,300,279.833z M311.95,306.729
	c0,6.586-5.36,11.943-11.95,11.943s-11.951-5.357-11.951-11.943v-13.458c0-6.586,5.361-11.944,11.951-11.944
	s11.95,5.358,11.95,11.944V306.729z M300.747,285.062v6.764c0,0.413-0.334,0.747-0.747,0.747s-0.747-0.334-0.747-0.747v-6.764
	c0-0.413,0.334-0.747,0.747-0.747S300.747,284.649,300.747,285.062z"/>
</svg>
