<?xml version="1.0" encoding="utf-8"?>
<!-- Generator: Adobe Illustrator 16.0.0, SVG Export Plug-In . SVG Version: 6.00 Build 0)  -->
<!DOCTYPE svg PUBLIC "-//W3C//DTD SVG 1.1//EN" "http://www.w3.org/Graphics/SVG/1.1/DTD/svg11.dtd">
<svg version="1.1" id="Capa_1" xmlns="http://www.w3.org/2000/svg" xmlns:xlink="http://www.w3.org/1999/xlink" x="0px" y="0px"
	 width="18px" height="18px" fill="#ffffff" viewBox="-11.144 -11.644 116.287 116.287"
	 enable-background="new -11.144 -11.644 116.287 116.287" xml:space="preserve">
<path fill="#ffffff" d="M88.114,63.529c-6.332-6.332-13.872-11.021-22.095-13.858c8.808-6.066,14.595-16.22,14.595-27.7
	c0-18.535-15.08-33.614-33.614-33.614c-18.535,0-33.614,15.08-33.614,33.614c0,11.48,5.787,21.634,14.595,27.7
	c-8.224,2.838-15.762,7.526-22.094,13.858c-10.982,10.982-17.03,25.584-17.03,41.114h9.085c0-27.051,22.008-49.059,49.059-49.059
	s49.059,22.008,49.059,49.059h9.085C105.144,89.113,99.095,74.512,88.114,63.529z M47,46.5c-13.525,0-24.529-11.004-24.529-24.529
	S33.475-2.559,47-2.559c13.524,0,24.529,11.004,24.529,24.529S60.524,46.5,47,46.5z"/>
</svg>
